<svg xmlns="http://www.w3.org/2000/svg" width="1200" height="630" viewBox="0 0 1200 630" role="img" aria-label="SoFa Jewish Community Center">
  <defs>
    <linearGradient id="bg" x1="0" y1="0" x2="1" y2="1">
      <stop offset="0" stop-color="#17335c"/>
      <stop offset="1" stop-color="#0f2542"/>
    </linearGradient>
    <radialGradient id="glow" cx="82%" cy="8%" r="60%">
      <stop offset="0" stop-color="#c99a3f" stop-opacity="0.28"/>
      <stop offset="1" stop-color="#c99a3f" stop-opacity="0"/>
    </radialGradient>
  </defs>
  <rect width="1200" height="630" fill="url(#bg)"/>
  <rect width="1200" height="630" fill="url(#glow)"/>

  <!-- sofa mark -->
  <g transform="translate(600,150) scale(2.1)" fill="none" stroke="#e6cd93" stroke-width="3.2" stroke-linecap="round" stroke-linejoin="round">
    <path d="M-16 2v-4a4 4 0 0 1 4-4h24a4 4 0 0 1 4 4v4"/>
    <path d="M-19 2a3 3 0 0 1 3 3v6h32v-6a3 3 0 0 1 6 0v9a2 2 0 0 1-2 2H-17a2 2 0 0 1-2-2v-9a3 3 0 0 1 3-3z" fill="#c99a3f" stroke="#c99a3f"/>
  </g>

  <text x="600" y="360" text-anchor="middle" font-family="Georgia, 'Times New Roman', serif" font-size="92" font-weight="700" fill="#ffffff">SoFa</text>
  <text x="600" y="410" text-anchor="middle" font-family="Arial, sans-serif" font-size="26" letter-spacing="6" fill="#e6cd93">JEWISH COMMUNITY CENTER</text>
  <text x="600" y="480" text-anchor="middle" font-family="Arial, sans-serif" font-size="30" fill="#dbe4f1">Pray &#8226; Celebrate &#8226; Love &#8226; Friendship</text>
</svg>
